# xmcd
#
# Track frame offsets:
#	150
#	17172
#	33760
#	48105
#	63927
#	74952
#	90170
#	100170
#	111677
#	126395
#	140122
#	153780
#	171075
#	184620
#	198295
#	211392
#	222237
#	237272
#	253410
#	264325
#	278615
#
# Disc length: 3980 seconds
#
# Revision: 1
# Processed by: cddbd v1.4b41PL1 Copyright (c) Steve Scherf et al.
# Submitted via: audiograbber 1.80
#
DISCID=350f8a15
DTITLE=Various Artist - Kickin' Asphalt
DYEAR=1900
DGENRE=
TTITLE0=Joe Sun - 13 Tons of Ice Cream
TTITLE1=Bobby Bare - This is as Far as I Go
TTITLE2=Bobby Bare - Six Days Back at Home
TTITLE3=Moe Bandy and Joe Stampley - Semi Married Man
TTITLE4=Sheb Wooley - Mother Trucker's Double Clutcher's Trucker Line
TTITLE5=Moe Bandy and Joe Stampley - Kickin' Asphalt
TTITLE6=Sheb Wooley - Come On Back to Nashville and Get Your Peterbilt
TTITLE7=Moe Bandy and Joe Stampley - We May Be Lost But We're Making Good Time
TTITLE8=Del Reeves - Truck Drivers' Girl
TTITLE9=Sheb Wooley - Truckin' Son's of Mitch
TTITLE10=Del Reeves - Bertha the Bull Hauler
TTITLE11=Sheb Wooley - Truckers Lament: I Just Don't Look Good Naked Anymore
TTITLE12=Del Reeves - Date In Dallas
TTITLE13=Bobby Bare - Don't Go To Sleep On the Road
TTITLE14=Jethro and Bodine - Bad Gas
TTITLE15=Joe Sun - Fryin' Bacon Naked
TTITLE16=Sheb Wooley - Born to be a Trucker
TTITLE17=Bobby Bare - Momma Take the Road Off Me
TTITLE18=Bobby Bare - There's An 18 Wheeler
TTITLE19=Del Reeves - Marry for Money
TTITLE20=Bobby Bare - World's Last Truck Drivin' Man
EXTD=
EXTT0=
EXTT1=
EXTT2=
EXTT3=
EXTT4=
EXTT5=
EXTT6=
EXTT7=
EXTT8=
EXTT9=
EXTT10=
EXTT11=
EXTT12=
EXTT13=
EXTT14=
EXTT15=
EXTT16=
EXTT17=
EXTT18=
EXTT19=
EXTT20=
PLAYORDER=
